HIERARCHY
ROOT Hips
{
	OFFSET 0.000000 0.000000 0.000000 
	CHANNELS 6 Xposition Yposition Zposition Zrotation Xrotation Yrotation
	JOINT Spine
	{
		OFFSET -0.000000 8.061080 0.000000 
		CHANNELS 3 Zrotation Xrotation Yrotation
		JOINT Spine1
		{
			OFFSET -0.000000 20.532677 0.000000 
			CHANNELS 3 Zrotation Xrotation Yrotation
			JOINT Neck
			{
				OFFSET -0.000000 22.498795 0.000000 
				CHANNELS 3 Zrotation Xrotation Yrotation
				JOINT Head
				{
					OFFSET -0.000000 15.237408 1.966117 
					CHANNELS 3 Zrotation Xrotation Yrotation
					End Site
					{
						OFFSET -0.000000 19.661171 0.000000 
					}
				}
			}
			JOINT LeftShoulder
			{
				OFFSET 3.894675 16.042269 -0.398189 
				CHANNELS 3 Zrotation Xrotation Yrotation
				JOINT LeftArm
				{
					OFFSET 19.709621 0.000000 0.000000 
					CHANNELS 3 Zrotation Xrotation Yrotation
					JOINT LeftForeArm
					{
						OFFSET 25.566900 0.000000 0.000000 
						CHANNELS 3 Zrotation Xrotation Yrotation
						JOINT LeftHand
						{
							OFFSET 25.401896 0.000000 0.000000 
							CHANNELS 3 Zrotation Xrotation Yrotation
							End Site
							{
								OFFSET 14.745877 0.000000 0.000000 
							}
						}
					}
				}
			}
			JOINT RightShoulder
			{
				OFFSET -3.930777 16.042269 -0.398189 
				CHANNELS 3 Zrotation Xrotation Yrotation
				JOINT RightArm
				{
					OFFSET -19.709621 0.000000 0.000000 
					CHANNELS 3 Zrotation Xrotation Yrotation
					JOINT RightForeArm
					{
						OFFSET -25.566900 0.000000 0.000000 
						CHANNELS 3 Zrotation Xrotation Yrotation
						JOINT RightHand
						{
							OFFSET -25.401896 0.000000 0.000000 
							CHANNELS 3 Zrotation Xrotation Yrotation
							End Site
							{
								OFFSET -14.745877 0.000000 0.000000 
							}
						}
					}
				}
			}
		}
	}
	JOINT LeftUpLeg
	{
		OFFSET 9.830585 0.000000 0.000000 
		CHANNELS 3 Zrotation Xrotation Yrotation
		JOINT LeftLeg
		{
			OFFSET -0.000000 -46.474842 0.000000 
			CHANNELS 3 Zrotation Xrotation Yrotation
			JOINT LeftFoot
			{
				OFFSET -0.000000 -30.290520 0.000000 
				CHANNELS 3 Zrotation Xrotation Yrotation
				JOINT LeftToeBase
				{
					OFFSET -0.000000 -6.389880 14.745877 
					CHANNELS 3 Zrotation Xrotation Yrotation
					End Site
					{
						OFFSET -0.000000 0.000000 3.932234 
					}
				}
			}
		}
	}
	JOINT RightUpLeg
	{
		OFFSET -9.830585 0.000000 0.000000 
		CHANNELS 3 Zrotation Xrotation Yrotation
		JOINT RightLeg
		{
			OFFSET -0.000000 -46.474842 0.000000 
			CHANNELS 3 Zrotation Xrotation Yrotation
			JOINT RightFoot
			{
				OFFSET -0.000000 -30.290520 0.000000 
				CHANNELS 3 Zrotation Xrotation Yrotation
				JOINT RightToeBase
				{
					OFFSET -0.000000 -6.389880 14.745877 
					CHANNELS 3 Zrotation Xrotation Yrotation
					End Site
					{
						OFFSET -0.000000 0.000000 3.932234 
					}
				}
			}
		}
	}
}
MOTION
Frames: 11
Frame Time: 0.010000
0.000000 85.443390 0.000000 -1.116663 3.295547 5.763643 2.120986 -6.134274 -0.656300 0.716270 -2.838773 -0.241292 3.555001 9.013432 2.208135 -0.209007 3.712213 3.070866 2.443878 10.073934 -0.264642 -70.502983 26.101931 -24.324152 -12.684230 1.921596 -3.538227 4.228038 1.820110 7.894040 -8.006136 10.037621 -10.513603 49.009716 57.572575 43.586712 3.147402 -7.308904 15.414816 -5.651207 -7.935438 4.173016 2.873710 0.326741 4.520226 1.742733 -5.458096 3.724798 1.164942 6.260276 3.491099 0.000000 0.000000 0.000000 -8.847025 -6.572176 8.456352 10.130566 5.601362 -15.914762 -8.084707 2.969030 -8.188202 0.000000 0.000000 0.000000 
0.006003 85.433189 0.016360 -1.076687 3.246708 5.796696 2.062154 -6.041754 -0.652778 0.767268 -2.900285 -0.236693 3.553684 8.921263 2.186185 -0.233093 3.842263 3.049139 2.416164 9.731009 -0.363354 -70.731735 26.118231 -23.806950 -12.663484 1.983798 -3.641838 4.185660 1.869573 7.920724 -8.053464 10.073157 -10.616697 49.203537 57.443115 43.434120 3.201787 -7.268248 15.458529 -5.545342 -7.896576 4.111125 2.836982 0.393523 4.475283 1.744367 -5.477647 3.722088 1.173156 6.269650 3.506003 0.000000 0.000000 0.000000 -8.891922 -6.511795 8.484518 10.158096 5.561131 -15.864314 -8.134764 3.032128 -8.319805 0.000000 0.000000 0.000000 
0.009351 85.436844 0.009333 -1.083399 3.235842 5.791203 2.086610 -6.066689 -0.660480 0.743519 -2.861136 -0.240625 3.545589 8.941972 2.241606 -0.220071 3.776338 3.103100 2.422386 9.711132 -0.376284 -70.750053 26.080156 -23.778362 -12.667808 1.971390 -3.638903 4.246569 1.861247 7.913000 -8.030644 10.127806 -10.625964 48.943233 57.542786 43.706535 3.106369 -7.364629 15.455767 -5.379695 -7.969996 4.025157 2.987717 0.810037 4.492361 2.071332 -4.894917 3.774182 -0.697657 3.662958 2.151455 0.000000 0.000000 0.000000 -8.877883 -6.510433 8.478806 10.151972 5.573569 -15.868969 -8.139927 3.036727 -8.317755 0.000000 0.000000 0.000000 
0.007090 85.426521 -0.001463 -1.133347 3.303532 5.800879 2.165657 -6.151083 -0.640628 0.722488 -2.859889 -0.236752 3.519238 8.918844 2.205269 -0.208608 3.861137 3.057550 2.450982 9.711989 -0.351778 -70.712784 26.225700 -23.872419 -12.653514 1.920403 -3.588522 4.190184 1.811871 7.897785 -8.051687 10.035071 -10.591549 49.054630 57.579315 43.562611 3.154532 -7.375237 15.422597 -5.575849 -7.997510 4.118790 3.033180 0.729863 4.500729 2.064014 -4.889576 3.771532 -0.665388 3.612774 2.128969 0.000000 0.000000 0.000000 -8.841601 -6.591861 8.475504 10.154912 5.572395 -15.875130 -8.083653 3.047008 -8.355498 0.000000 0.000000 0.000000 
0.010570 85.437347 -0.000938 -1.077628 3.229510 5.793614 2.092444 -6.060043 -0.659895 0.741089 -2.883274 -0.240545 3.549795 8.941597 2.240772 -0.251356 3.802838 3.108225 2.420125 9.703039 -0.384440 -70.752831 26.083235 -23.752356 -12.665507 1.972773 -3.643605 4.212968 1.859948 7.914969 -8.050502 10.100631 -10.615721 48.975559 57.579746 43.676907 3.106984 -7.370771 15.452930 -5.422724 -7.977523 4.022733 2.987703 0.806592 4.474544 1.984679 -4.895981 3.927306 -0.565373 3.675381 2.095793 0.000000 0.000000 0.000000 -8.883818 -6.517890 8.475603 10.151754 5.590911 -15.855648 -8.111123 3.035681 -8.345147 0.000000 0.000000 0.000000 
-0.003160 85.440331 -0.008153 -1.084648 3.248838 5.815367 2.078613 -6.022277 -0.675963 0.776150 -3.000688 -0.243733 3.528782 8.968855 2.219212 -0.255589 3.882763 3.083167 2.415925 10.109397 -0.236528 -70.482529 26.181154 -24.321539 -12.679867 1.907543 -3.536912 4.205437 1.804473 7.884661 -8.024568 10.032870 -10.586977 49.365200 57.369072 43.223896 3.283767 -7.188693 15.486609 -5.665037 -7.832301 4.092011 3.008696 0.770319 4.475539 2.035870 -4.873633 3.776890 -0.691881 3.676087 2.153173 0.000000 0.000000 0.000000 -8.877230 -6.539833 8.512542 10.156952 5.573578 -15.911597 -8.103887 3.062039 -8.338713 0.000000 0.000000 0.000000 
0.008328 85.435921 -0.005899 -1.058063 3.222219 5.811716 2.036123 -6.020628 -0.659516 0.845725 -2.975255 -0.235703 3.481501 8.962868 2.217016 -0.268869 3.884905 3.072850 2.338465 9.750936 -0.404427 -70.713760 26.076897 -23.749096 -12.676456 1.971795 -3.653004 4.225178 1.858427 7.914165 -8.115645 10.105889 -10.591798 49.219437 57.433537 43.430244 3.233711 -7.258108 15.463346 -5.711781 -7.896382 4.102600 3.060992 0.834940 4.461719 2.187886 -4.852339 3.764355 -2.983092 3.800235 2.879308 0.000000 0.000000 0.000000 -8.915109 -6.511040 8.496741 10.170093 5.584176 -15.860496 -8.100652 3.044080 -8.365755 0.000000 0.000000 0.000000 
0.007081 85.435616 -0.012566 -1.047973 3.217463 5.820328 2.015168 -6.006768 -0.667237 0.872609 -2.998823 -0.237027 3.461396 8.982752 2.213420 -0.277533 3.869566 3.066820 2.320632 9.780381 -0.399590 -70.701729 26.071836 -23.770399 -12.668719 1.970267 -3.652480 4.204044 1.856200 7.928018 -8.131205 10.110630 -10.586482 49.219963 57.436077 43.430229 3.231684 -7.246406 15.467964 -5.758129 -7.886054 4.099475 2.968395 0.804366 4.445688 1.965468 -4.888235 3.944906 -0.535250 3.688528 2.069833 0.000000 0.000000 0.000000 -8.925017 -6.515239 8.484934 10.174271 5.603965 -15.867146 -8.138354 3.030725 -8.333979 0.000000 0.000000 0.000000 
-0.001907 85.444038 -0.027299 -1.075604 3.236035 5.817862 2.112702 -6.050006 -0.681104 0.720682 -2.960967 -0.247961 3.572344 9.004890 2.281160 -0.327675 3.764934 3.168914 2.436785 10.073824 -0.269297 -70.496407 26.183584 -24.273937 -12.652315 1.887168 -3.541048 4.188808 1.783504 7.888438 -8.016170 10.052421 -10.589672 49.429047 57.340965 43.214931 3.218604 -7.152542 15.519083 -5.559077 -7.779727 3.990818 3.002637 0.764110 4.465014 1.957453 -4.871308 3.914232 -0.534124 3.700275 2.084363 0.000000 0.000000 0.000000 -8.876230 -6.555912 8.484608 10.147357 5.625079 -15.862957 -8.102174 3.055447 -8.376952 0.000000 0.000000 0.000000 
0.004950 85.436638 -0.021638 -1.037802 3.198330 5.833093 2.012147 -5.985077 -0.676777 0.874020 -3.020457 -0.239801 3.453967 8.952119 2.237027 -0.294517 3.920429 3.091583 2.325302 9.777970 -0.406650 -70.701935 26.073961 -23.761341 -12.680005 1.966245 -3.640904 4.228878 1.855087 7.934425 -8.135205 10.114996 -10.584236 49.202953 57.450127 43.451794 3.223349 -7.261960 15.475973 -5.752106 -7.900101 4.091468 2.961199 0.814832 4.436193 1.961971 -4.893201 3.927079 -0.521685 3.709938 2.081200 0.000000 0.000000 0.000000 -8.932076 -6.505771 8.485787 10.174820 5.617618 -15.857595 -8.108961 3.027146 -8.378487 0.000000 0.000000 0.000000 
-0.007174 85.441528 -0.034124 -1.054862 3.217793 5.844878 2.083323 -5.996545 -0.692041 0.749550 -3.033179 -0.249356 3.527111 8.937137 2.241946 -0.310092 3.931262 3.114271 2.425212 10.087343 -0.263742 -70.481316 26.204386 -24.273670 -12.666724 1.895252 -3.540101 4.167295 1.790292 7.903350 -8.032123 10.029868 -10.570972 49.001945 57.650066 43.581322 3.161683 -7.379363 15.452475 -5.714196 -8.007216 4.095426 2.987152 0.772443 4.446474 1.958506 -4.866516 3.900333 -0.540602 3.706707 2.088526 0.000000 0.000000 0.000000 -8.906142 -6.538192 8.500146 10.166151 5.621566 -15.862307 -8.092597 3.052912 -8.404937 0.000000 0.000000 0.000000 
